<svg width="344" height="70" viewBox="0 0 344 70" fill="none" xmlns="http://www.w3.org/2000/svg">
<path d="M5.856 69.362C5.46 69.362 5.064 69.308 4.668 69.2C4.308 69.128 3.93 69.038 3.534 68.93C2.166 68.534 1.446 67.58 1.374 66.068C1.086 60.74 0.816 55.466 0.564 50.246C0.348 44.99 0.24 39.698 0.24 34.37C0.24 32.39 0.258 30.392 0.294 28.376C0.33 26.36 0.402 24.254 0.51 22.058C0.654 19.25 0.708 16.478 0.672 13.742C0.672 11.006 0.708 8.234 0.78 5.426C0.816 3.806 1.122 2.69 1.698 2.078C2.274 1.466 3.318 1.16 4.83 1.16L11.742 1.43C12.894 1.538 13.686 1.826 14.118 2.294C14.586 2.762 14.82 3.572 14.82 4.724V6.182C14.82 7.694 14.838 9.188 14.874 10.664C14.91 12.14 14.928 13.616 14.928 15.092C14.928 15.488 14.91 16.136 14.874 17.036C14.838 17.936 14.802 18.98 14.766 20.168C14.73 21.356 14.676 22.616 14.604 23.948C14.532 25.28 14.478 26.576 14.442 27.836C14.406 29.096 14.37 30.248 14.334 31.292C14.298 32.336 14.28 33.164 14.28 33.776C14.28 35.252 14.298 36.71 14.334 38.15C14.37 39.59 14.442 41.03 14.55 42.47C14.586 42.758 14.604 43.316 14.604 44.144C14.604 44.972 14.604 45.836 14.604 46.736V50.084C14.604 51.992 14.676 53.882 14.82 55.754C15 57.626 15.18 59.534 15.36 61.478C15.468 62.45 15.522 63.422 15.522 64.394L15.468 66.014C15.324 67.958 14.28 69.002 12.336 69.146C11.256 69.218 10.176 69.272 9.096 69.308C8.016 69.344 6.936 69.362 5.856 69.362ZM36.0593 69.362C34.3313 69.362 32.6213 69.344 30.9293 69.308C29.2733 69.272 27.5993 69.236 25.9073 69.2C24.5033 69.2 23.6033 68.516 23.2073 67.148C22.9913 66.5 22.8833 65.852 22.8833 65.204C22.8113 64.088 22.7213 62.972 22.6133 61.856C22.5053 60.776 22.4513 59.678 22.4513 58.562C22.4513 57.698 22.4333 56.636 22.3973 55.376C22.3613 54.152 22.3253 52.856 22.2893 51.488C22.2893 50.084 22.2713 48.662 22.2353 47.222C22.1993 45.746 22.1633 44.36 22.1273 43.064C22.0913 41.768 22.0553 40.598 22.0193 39.554C22.0193 38.474 22.0193 37.628 22.0193 37.016V36.152L22.0733 33.614C22.1453 31.67 22.1813 29.762 22.1813 27.89C22.2173 25.982 22.2353 24.056 22.2353 22.112C22.2353 20.348 22.2353 18.602 22.2353 16.874C22.2353 15.146 22.1993 13.472 22.1273 11.852V10.772C22.1273 9.872 22.1453 8.99 22.1813 8.126C22.2173 7.226 22.2353 6.326 22.2353 5.426V4.184C22.2353 3.356 22.4693 2.69 22.9373 2.186C23.4413 1.682 24.1253 1.394 24.9893 1.322C26.4293 1.214 27.9053 1.16 29.4173 1.16C30.4613 1.16 31.4873 1.178 32.4953 1.214C33.5033 1.25 34.5293 1.304 35.5733 1.376C36.4733 1.448 37.1213 1.682 37.5173 2.078C37.9493 2.474 38.2193 3.086 38.3273 3.914C39.1553 9.53 40.3253 15.092 41.8373 20.6C43.3853 26.072 44.9333 31.598 46.4813 37.178C47.0573 39.266 47.6333 41.336 48.2093 43.388C48.8213 45.44 49.4333 47.51 50.0453 49.598C50.1173 49.886 50.2073 50.156 50.3153 50.408C50.4233 50.66 50.5313 50.93 50.6393 51.218C50.7113 50.858 50.7653 50.516 50.8013 50.192C50.8373 49.832 50.8553 49.49 50.8553 49.166C50.8553 48.626 50.8373 48.104 50.8013 47.6C50.7653 47.06 50.7113 46.538 50.6393 46.034C50.3513 41.93 50.0813 37.844 49.8293 33.776C49.5773 29.708 49.4513 25.604 49.4513 21.464L49.3973 11.744C49.3973 10.664 49.3973 9.602 49.3973 8.558C49.4333 7.478 49.4873 6.47 49.5593 5.534C49.5953 5.174 49.6133 4.814 49.6133 4.454C49.6133 4.094 49.6493 3.734 49.7213 3.374C49.8653 2.69 50.1533 2.168 50.5853 1.808C51.0173 1.448 51.5393 1.268 52.1513 1.268H52.2593C52.9073 1.34 53.4293 1.592 53.8253 2.024C54.2573 2.42 54.4913 2.978 54.5273 3.698L54.4733 8.45C54.4373 9.782 54.4193 11.168 54.4193 12.608C54.4193 14.048 54.4193 15.506 54.4193 16.982C54.4193 20.798 54.4733 24.596 54.5813 28.376C54.6893 32.12 54.8873 35.9 55.1753 39.716C55.4993 44 55.8053 48.248 56.0933 52.46C56.4173 56.636 56.6873 60.74 56.9033 64.772C56.9393 64.988 56.9573 65.204 56.9573 65.42C56.9933 65.636 57.0113 65.852 57.0113 66.068C56.9033 67.832 56.0753 68.876 54.5273 69.2L53.7173 69.308C52.6013 69.308 51.7553 68.714 51.1793 67.526C50.7833 66.77 50.4233 65.996 50.0993 65.204C49.7753 64.412 49.4333 63.602 49.0733 62.774C47.7413 59.678 46.6253 56.402 45.7253 52.946C44.8253 49.49 43.8533 46.016 42.8093 42.524C42.0173 39.896 41.2613 37.268 40.5413 34.64C39.8213 32.012 39.1013 29.384 38.3813 26.756C38.3093 26.54 38.2373 26.342 38.1653 26.162C38.1293 25.946 38.0213 25.766 37.8413 25.622C37.6973 25.658 37.6253 25.784 37.6253 26V27.404C37.6253 29.348 37.6073 31.256 37.5713 33.128C37.5353 34.964 37.5173 36.71 37.5173 38.366C37.5173 38.69 37.5173 39.41 37.5173 40.526C37.5533 41.642 37.5713 42.974 37.5713 44.522C37.6073 46.034 37.6253 47.69 37.6253 49.49C37.6613 51.254 37.6973 52.964 37.7333 54.62C37.8053 56.312 37.8593 57.86 37.8953 59.264C37.9673 60.668 38.0393 61.748 38.1113 62.504C38.1833 63.116 38.2193 63.728 38.2193 64.34C38.2553 64.952 38.3453 65.564 38.4893 66.176L38.5973 66.986C38.5973 67.706 38.3813 68.264 37.9493 68.66C37.5173 69.092 36.8873 69.326 36.0593 69.362ZM80.5578 69.362C79.4778 69.362 78.4338 69.308 77.4258 69.2C75.6258 69.092 74.0058 68.642 72.5658 67.85C71.1258 67.094 69.8118 66.068 68.6238 64.772C66.7878 62.792 65.3838 60.65 64.4118 58.346C63.4398 56.078 62.9538 53.594 62.9538 50.894V50.678C62.9538 49.85 62.9538 49.022 62.9538 48.194C62.9538 47.366 62.9718 46.538 63.0078 45.71C63.1158 44.054 63.8898 43.172 65.3298 43.064H65.4378C66.7698 43.064 67.6338 43.838 68.0298 45.386L68.1378 46.196C68.1378 46.412 68.1198 46.646 68.0838 46.898C68.0478 47.114 68.0118 47.33 67.9758 47.546L67.8678 49.706C67.8678 50.966 67.9758 52.244 68.1918 53.54C68.5518 55.412 69.1998 57.086 70.1358 58.562C71.0718 60.038 72.2418 61.388 73.6458 62.612C74.1138 63.008 74.5998 63.314 75.1038 63.53C75.8598 63.89 76.6338 64.07 77.4258 64.07C78.6138 64.07 79.6038 63.656 80.3958 62.828C81.1878 62 81.6018 60.848 81.6378 59.372V58.508C81.6378 56.168 81.2418 53.918 80.4498 51.758C80.0898 50.786 79.7298 49.832 79.3698 48.896C79.0098 47.96 78.6138 47.024 78.1818 46.088C78.1098 45.98 77.9838 45.782 77.8038 45.494C77.6238 45.17 77.4078 44.846 77.1558 44.522C76.9038 44.162 76.6518 43.802 76.3998 43.442C76.1478 43.082 75.9138 42.794 75.6978 42.578C75.3018 42.146 74.8878 41.714 74.4558 41.282C74.0598 40.814 73.6638 40.382 73.2678 39.986C72.8718 39.554 72.5118 39.194 72.1878 38.906C71.8638 38.582 71.6298 38.348 71.4858 38.204C70.8738 37.628 70.2438 37.016 69.5958 36.368C68.9838 35.684 68.3538 34.982 67.7058 34.262C66.3378 32.822 65.2578 31.31 64.4658 29.726C63.6738 28.142 63.1338 26.684 62.8458 25.352C62.7018 24.452 62.5938 23.57 62.5218 22.706C62.4498 21.806 62.4138 20.906 62.4138 20.006C62.4138 18.998 62.4678 17.972 62.5758 16.928C62.8638 14.552 63.5118 12.356 64.5198 10.34C65.5278 8.324 66.8598 6.47 68.5158 4.778C69.5598 3.662 70.7118 2.798 71.9718 2.186C73.2678 1.574 74.6898 1.268 76.2378 1.268H79.0998C79.8918 1.268 80.6658 1.268 81.4218 1.268C82.2138 1.232 82.8258 1.214 83.2578 1.214H84.1218C86.3538 1.214 88.2078 1.772 89.6838 2.888C91.1958 3.968 92.3658 5.462 93.1938 7.37C94.5618 10.682 95.2458 14.156 95.2458 17.792C95.2458 20.204 94.9398 22.724 94.3278 25.352C94.1478 26.072 93.8418 26.612 93.4098 26.972C93.0138 27.332 92.5278 27.512 91.9518 27.512C91.6638 27.512 91.4478 27.494 91.3038 27.458C90.7278 27.314 90.2598 27.026 89.8998 26.594C89.5758 26.162 89.4138 25.64 89.4138 25.028L89.5218 24.218C89.9538 22.238 90.1698 20.258 90.1698 18.278C90.1698 16.586 90.0438 15.002 89.7918 13.526C89.6118 12.41 89.3598 11.33 89.0358 10.286C88.7478 9.242 88.1538 8.306 87.2538 7.478C86.5338 6.794 85.8498 6.452 85.2018 6.452C84.7698 6.452 84.2298 6.614 83.5818 6.938C83.2578 7.118 82.9338 7.316 82.6098 7.532C82.3218 7.712 82.0698 7.946 81.8538 8.234C80.8458 9.278 79.9638 10.412 79.2078 11.636C78.4518 12.824 77.9118 14.156 77.5878 15.632C77.2638 17.144 77.1018 18.656 77.1018 20.168C77.1018 21.032 77.1378 21.896 77.2098 22.76C77.3178 23.588 77.4618 24.434 77.6418 25.298C77.7138 25.55 77.8758 25.982 78.1278 26.594C78.3798 27.206 78.5958 27.656 78.7758 27.944C79.0278 28.304 79.2978 28.7 79.5858 29.132C79.9098 29.564 80.2698 29.996 80.6658 30.428C81.3858 31.184 82.0698 31.94 82.7178 32.696C83.4018 33.452 84.1038 34.136 84.8238 34.748C85.5438 35.36 86.3358 36.134 87.1998 37.07C88.0638 37.97 88.8558 38.87 89.5758 39.77C89.8278 40.058 90.0978 40.418 90.3858 40.85C90.7098 41.282 90.9978 41.714 91.2498 42.146C91.5378 42.578 91.7718 42.974 91.9518 43.334C92.1678 43.658 92.3118 43.874 92.3838 43.982C92.9238 45.098 93.4098 46.232 93.8418 47.384C94.3098 48.5 94.7418 49.634 95.1378 50.786C96.0018 53.27 96.4338 55.79 96.4338 58.346C96.4338 58.742 96.4158 59.12 96.3798 59.48C96.3798 59.84 96.3618 60.218 96.3258 60.614C96.2178 61.694 95.9298 62.738 95.4618 63.746C94.9938 64.754 94.3638 65.654 93.5718 66.446C92.8158 67.274 91.8798 67.94 90.7638 68.444C89.6838 68.948 88.4778 69.218 87.1458 69.254L80.5578 69.362ZM114.696 69.578C113.94 69.578 113.184 69.542 112.428 69.47C111.708 69.434 110.97 69.344 110.214 69.2C109.386 69.02 108.792 68.714 108.432 68.282C108.108 67.886 107.91 67.238 107.838 66.338C107.514 62.126 107.244 57.932 107.028 53.756C106.848 49.616 106.758 45.422 106.758 41.174L106.812 37.016C106.884 33.308 106.92 29.618 106.92 25.946C106.956 22.238 107.064 18.494 107.244 14.714C107.316 13.49 107.388 12.302 107.46 11.15C107.568 9.962 107.694 8.882 107.838 7.91V7.694C107.838 7.226 107.73 6.884 107.514 6.668C107.334 6.452 106.992 6.308 106.488 6.236C105.552 6.128 104.634 6.074 103.734 6.074C103.41 6.074 103.068 6.074 102.708 6.074C102.384 6.074 102.06 6.092 101.736 6.128C101.412 6.092 101.088 6.074 100.764 6.074C100.44 6.074 100.134 6.038 99.8464 5.966C99.3064 5.822 98.8744 5.552 98.5504 5.156C98.2264 4.76 98.0644 4.292 98.0644 3.752V3.59C98.0644 2.618 98.5684 1.88 99.5764 1.376C100.044 1.196 100.53 1.106 101.034 1.106L101.682 1.16C105.39 1.196 109.044 1.232 112.644 1.268C116.28 1.268 119.952 1.268 123.66 1.268H127.332C127.98 1.268 128.7 1.358 129.492 1.538C130.104 1.718 130.572 2.024 130.896 2.456C131.256 2.852 131.436 3.32 131.436 3.86L131.382 4.238C131.31 4.814 131.058 5.3 130.626 5.696C130.194 6.056 129.636 6.254 128.952 6.29H124.2C123.768 6.29 123.426 6.308 123.174 6.344C122.958 6.344 122.796 6.398 122.688 6.506C122.58 6.614 122.49 6.794 122.418 7.046C122.382 7.262 122.346 7.586 122.31 8.018C121.914 11.294 121.662 14.588 121.554 17.9C121.482 21.176 121.446 24.452 121.446 27.728V36.584C121.41 37.844 121.374 39.122 121.338 40.418C121.338 41.678 121.338 42.938 121.338 44.198C121.338 45.89 121.356 47.582 121.392 49.274C121.428 50.93 121.518 52.604 121.662 54.296C121.806 56.06 121.878 57.806 121.878 59.534C121.878 61.298 122.022 63.062 122.31 64.826C122.346 64.934 122.364 65.042 122.364 65.15C122.364 65.294 122.364 65.42 122.364 65.528L122.31 66.554C122.202 67.31 121.95 67.904 121.554 68.336C121.194 68.768 120.636 69.038 119.88 69.146C119.016 69.29 118.152 69.398 117.288 69.47C116.424 69.542 115.56 69.578 114.696 69.578ZM152.779 27.674C152.779 29.402 152.833 31.112 152.941 32.804C153.049 34.496 153.139 36.206 153.211 37.934C153.211 38.402 153.301 38.744 153.481 38.96C153.661 39.176 154.021 39.32 154.561 39.392C154.993 39.428 155.425 39.464 155.857 39.5C156.289 39.5 156.721 39.5 157.153 39.5C158.449 39.5 159.727 39.446 160.987 39.338C162.283 39.194 163.579 39.068 164.875 38.96C165.379 38.924 165.775 38.87 166.063 38.798C166.351 38.69 166.567 38.546 166.711 38.366C166.855 38.186 166.945 37.934 166.981 37.61C167.017 37.286 167.053 36.854 167.089 36.314C167.089 35.918 167.089 35.522 167.089 35.126C167.125 34.694 167.143 34.28 167.143 33.884C167.143 31.508 167.053 29.15 166.873 26.81C166.729 24.47 166.567 22.112 166.387 19.736C166.279 18.692 166.135 17.666 165.955 16.658C165.811 15.65 165.613 14.624 165.361 13.58C165.073 12.392 164.623 11.294 164.011 10.286C163.435 9.278 162.751 8.324 161.959 7.424C161.455 6.812 160.897 6.416 160.285 6.236C159.673 6.02 159.025 5.912 158.341 5.912C158.053 5.912 157.765 5.93 157.477 5.966C157.189 5.966 156.901 5.984 156.613 6.02C155.785 6.092 155.227 6.416 154.939 6.992C154.651 7.532 154.381 8.09 154.129 8.666C152.977 11.51 152.401 14.516 152.401 17.684C152.401 17.9 152.401 18.116 152.401 18.332C152.437 18.548 152.455 18.764 152.455 18.98C152.491 20.312 152.527 21.644 152.563 22.976C152.635 24.272 152.707 25.604 152.779 26.972V27.674ZM138.685 39.068C138.541 35.576 138.397 32.12 138.253 28.7C138.145 25.28 138.055 21.842 137.983 18.386C137.983 18.242 137.965 18.098 137.929 17.954C137.929 17.81 137.929 17.666 137.929 17.522C137.965 15.47 138.181 13.472 138.577 11.528C139.009 9.584 139.657 7.676 140.521 5.804C141.745 2.996 143.833 1.466 146.785 1.214C148.117 1.07 149.431 0.979997 150.727 0.943998C152.059 0.871998 153.391 0.835999 154.723 0.835999C156.451 0.835999 158.179 0.889998 159.907 0.997997C161.131 1.07 162.229 1.394 163.201 1.97C164.173 2.51 165.055 3.248 165.847 4.184C167.035 5.624 168.043 7.154 168.871 8.774C169.699 10.358 170.257 12.086 170.545 13.958C171.049 17.126 171.427 20.258 171.679 23.354C171.967 26.414 172.111 29.528 172.111 32.696C172.111 33.776 172.093 34.856 172.057 35.936C172.021 36.98 171.967 38.042 171.895 39.122C171.823 40.094 171.751 41.066 171.679 42.038C171.643 42.974 171.625 43.928 171.625 44.9C171.625 46.052 171.661 47.186 171.733 48.302C171.841 49.382 171.985 50.498 172.165 51.65C172.273 53.126 172.345 54.548 172.381 55.916C172.453 57.32 172.525 58.652 172.597 59.912C172.669 61.208 172.777 62.432 172.921 63.584C173.065 64.736 173.281 65.78 173.569 66.716C173.641 67.004 173.677 67.202 173.677 67.31C173.677 68.03 173.299 68.624 172.543 69.092C172.075 69.38 171.625 69.524 171.193 69.524C170.689 69.524 170.185 69.38 169.681 69.092C169.285 68.804 168.979 68.462 168.763 68.066C168.547 67.67 168.403 67.22 168.331 66.716C168.223 65.996 168.097 65.258 167.953 64.502C167.809 63.746 167.737 62.99 167.737 62.234C167.701 60.254 167.611 58.472 167.467 56.888C167.359 55.304 167.233 53.864 167.089 52.568C166.981 51.236 166.873 50.012 166.765 48.896C166.657 47.744 166.603 46.61 166.603 45.494V45.008C166.603 44.288 166.261 43.928 165.577 43.928H165.199C163.939 44.036 162.661 44.162 161.365 44.306C160.105 44.45 158.845 44.522 157.585 44.522C156.685 44.522 155.785 44.468 154.885 44.36H154.615C153.931 44.36 153.589 44.774 153.589 45.602C153.625 47.078 153.643 48.554 153.643 50.03C153.643 51.47 153.643 52.946 153.643 54.458L153.481 65.636C153.481 66.896 153.229 67.796 152.725 68.336C152.257 68.876 151.393 69.182 150.133 69.254C148.549 69.362 146.983 69.416 145.435 69.416C145.003 69.416 144.553 69.398 144.085 69.362C143.653 69.362 143.221 69.362 142.789 69.362C141.421 69.326 140.449 69.02 139.873 68.444C139.297 67.904 138.991 66.932 138.955 65.528C138.919 64.376 138.901 63.242 138.901 62.126C138.901 61.01 138.901 59.876 138.901 58.724L139.063 48.464C139.063 46.88 139.027 45.314 138.955 43.766C138.883 42.218 138.793 40.652 138.685 39.068ZM191.348 69.308C190.16 69.308 189.098 69.11 188.162 68.714C187.226 68.354 186.416 67.85 185.732 67.202C185.084 66.554 184.544 65.816 184.112 64.988C183.68 64.16 183.356 63.296 183.14 62.396C182.42 59.264 181.826 56.078 181.358 52.838C180.89 49.886 180.566 46.88 180.386 43.82C180.242 40.76 180.17 37.358 180.17 33.614C180.17 31.418 180.206 29.24 180.278 27.08C180.35 24.884 180.422 22.688 180.494 20.492C180.602 17.468 181.232 14.642 182.384 12.014C183.536 9.386 184.94 6.83 186.596 4.346C187.964 2.222 189.89 1.142 192.374 1.106L197.396 1.052C198.152 1.052 198.908 1.07 199.664 1.106C200.42 1.142 201.158 1.214 201.878 1.322C204.182 1.682 206.198 2.456 207.926 3.644C209.654 4.796 211.022 6.488 212.03 8.72C212.39 9.548 212.57 10.43 212.57 11.366C212.57 11.87 212.516 12.392 212.408 12.932C212.228 13.616 211.922 14.156 211.49 14.552C211.058 14.912 210.572 15.092 210.032 15.092H209.816C209.204 15.056 208.682 14.822 208.25 14.39C207.854 13.922 207.62 13.328 207.548 12.608C207.224 9.404 205.532 7.37 202.472 6.506C202.004 6.362 201.572 6.29 201.176 6.29C200.6 6.29 200.06 6.686 199.556 7.478C198.404 9.314 197.378 11.186 196.478 13.094C195.578 14.966 194.984 16.982 194.696 19.142C194.588 20.15 194.498 21.158 194.426 22.166C194.354 23.174 194.318 24.182 194.318 25.19V32.534C194.318 35.378 194.336 37.898 194.372 40.094C194.408 42.254 194.516 44.36 194.696 46.412C194.876 48.896 195.182 51.344 195.614 53.756C196.046 56.204 196.514 58.652 197.018 61.1C197.09 61.388 197.18 61.676 197.288 61.964C197.432 62.288 197.594 62.594 197.774 62.882C198.35 63.746 199.07 64.178 199.934 64.178C200.042 64.178 200.168 64.178 200.312 64.178C200.456 64.178 200.6 64.142 200.744 64.07C201.86 63.746 202.922 63.296 203.93 62.72C204.938 62.18 205.838 61.496 206.63 60.668C207.458 59.876 208.124 58.94 208.628 57.86C209.132 56.816 209.42 55.646 209.492 54.35L209.6 52.082C209.6 51.002 209.564 50.012 209.492 49.112C209.456 48.212 209.402 47.312 209.33 46.412C209.258 45.872 209.096 45.494 208.844 45.278C208.628 45.026 208.232 44.9 207.656 44.9C207.188 44.936 206.72 44.972 206.252 45.008C205.82 45.044 205.37 45.116 204.902 45.224L203.66 45.602C203.228 45.71 202.832 45.764 202.472 45.764C201.104 45.764 200.258 45.17 199.934 43.982C199.898 43.838 199.88 43.64 199.88 43.388C199.88 42.272 200.636 41.408 202.148 40.796C203.624 40.292 205.1 40.022 206.576 39.986L211.328 39.824C212.516 39.824 213.398 40.076 213.974 40.58C214.586 41.048 214.892 41.84 214.892 42.956V43.55C214.784 45.17 214.73 46.772 214.73 48.356C214.73 50.732 214.802 53.018 214.946 55.214C215.09 57.41 215.252 59.606 215.432 61.802C215.468 62.27 215.522 62.738 215.594 63.206C215.666 63.71 215.738 64.268 215.81 64.88L215.864 65.96C215.864 66.536 215.792 67.04 215.648 67.472C215.468 68.048 215.162 68.498 214.73 68.822C214.298 69.146 213.812 69.308 213.272 69.308C212.048 69.236 211.274 68.588 210.95 67.364C210.878 66.968 210.806 66.518 210.734 66.014C210.698 65.546 210.644 64.898 210.572 64.07C209.852 64.682 209.168 65.204 208.52 65.636C207.872 66.104 207.242 66.536 206.63 66.932C204.254 68.444 201.608 69.236 198.692 69.308H191.348ZM239.907 40.148C241.311 40.148 242.643 39.788 243.903 39.068C245.163 38.348 246.117 37.358 246.765 36.098C247.089 35.486 247.341 34.856 247.521 34.208C247.737 33.56 247.899 32.894 248.007 32.21C248.079 31.886 248.151 31.454 248.223 30.914C248.295 30.338 248.349 29.762 248.385 29.186C248.457 28.61 248.493 28.106 248.493 27.674C248.529 27.206 248.547 26.9 248.547 26.756C248.511 25.712 248.457 24.65 248.385 23.57C248.349 22.49 248.295 21.428 248.223 20.384C248.115 18.872 247.881 17.414 247.521 16.01C247.161 14.606 246.729 13.202 246.225 11.798C245.937 11.078 245.523 10.394 244.983 9.746C244.443 9.098 243.813 8.522 243.093 8.018C242.409 7.478 241.671 7.064 240.879 6.776C240.123 6.452 239.367 6.272 238.611 6.236H238.449C237.765 6.236 237.423 6.614 237.423 7.37L237.477 10.178C237.549 12.554 237.621 14.93 237.693 17.306C237.765 19.646 237.837 22.004 237.909 24.38C237.945 25.028 237.963 25.676 237.963 26.324C237.963 26.936 237.963 27.566 237.963 28.214L237.909 33.398V38.852C237.909 39.248 237.981 39.554 238.125 39.77C238.269 39.95 238.557 40.058 238.989 40.094L239.907 40.148ZM227.271 69.524C224.679 69.524 223.383 68.282 223.383 65.798V64.826C223.383 64.142 223.347 63.458 223.275 62.774C223.239 62.126 223.185 61.46 223.113 60.776C223.077 55.916 223.005 51.38 222.897 47.168C222.789 42.956 222.735 38.798 222.735 34.694L222.789 28.808C222.789 26.144 222.753 23.516 222.681 20.924C222.609 18.296 222.537 15.668 222.465 13.04C222.429 12.068 222.393 11.096 222.357 10.124C222.357 9.152 222.357 8.18 222.357 7.208V5.048C222.357 2.6 223.581 1.322 226.029 1.214C227.181 1.142 228.351 1.088 229.539 1.052C230.727 1.016 231.897 0.997997 233.049 0.997997C234.093 0.997997 235.119 1.016 236.127 1.052C237.135 1.088 238.143 1.178 239.151 1.322C242.067 1.682 244.551 2.636 246.603 4.184C248.655 5.732 250.167 7.928 251.139 10.772C251.967 13.256 252.579 15.74 252.975 18.224C253.371 20.708 253.587 23.21 253.623 25.73L253.515 28.16C253.443 28.88 253.335 29.744 253.191 30.752C253.083 31.724 252.939 32.732 252.759 33.776C252.327 36.476 251.355 38.762 249.843 40.634C248.367 42.47 246.261 43.802 243.525 44.63C243.381 44.666 243.237 44.72 243.093 44.792C242.949 44.864 242.733 44.954 242.445 45.062C242.841 45.458 243.327 46.07 243.903 46.898C244.479 47.726 245.073 48.68 245.685 49.76C246.333 50.804 246.999 51.938 247.683 53.162C248.367 54.386 249.015 55.556 249.627 56.672C250.239 57.824 250.797 58.868 251.301 59.804C251.805 60.776 252.219 61.55 252.543 62.126C252.723 62.486 252.921 62.81 253.137 63.098C253.389 63.422 253.641 63.746 253.893 64.07C254.073 64.322 254.235 64.556 254.379 64.772C254.559 64.988 254.721 65.24 254.865 65.528C255.117 65.996 255.243 66.464 255.243 66.932C255.243 67.58 254.991 68.156 254.487 68.66C254.019 69.056 253.497 69.254 252.921 69.254C252.237 69.254 251.643 69.002 251.139 68.498C250.455 67.886 249.861 67.184 249.357 66.392C248.853 65.636 248.349 64.844 247.845 64.016C247.197 62.936 246.549 61.73 245.901 60.398C245.289 59.102 244.623 57.77 243.903 56.402C243.219 55.07 242.499 53.774 241.743 52.514C241.023 51.254 240.231 50.156 239.367 49.22C239.223 49.112 239.097 49.004 238.989 48.896C238.881 48.752 238.755 48.608 238.611 48.464C238.395 48.572 238.251 48.698 238.179 48.842C238.143 48.986 238.125 49.13 238.125 49.274L238.179 50.03L238.557 66.338C238.557 67.31 238.341 67.994 237.909 68.39C237.477 68.822 236.739 69.092 235.695 69.2C234.291 69.272 232.887 69.344 231.483 69.416C230.079 69.488 228.675 69.524 227.271 69.524ZM275.492 27.674C275.492 29.402 275.546 31.112 275.654 32.804C275.762 34.496 275.852 36.206 275.924 37.934C275.924 38.402 276.014 38.744 276.194 38.96C276.374 39.176 276.734 39.32 277.274 39.392C277.706 39.428 278.138 39.464 278.57 39.5C279.002 39.5 279.434 39.5 279.866 39.5C281.162 39.5 282.44 39.446 283.7 39.338C284.996 39.194 286.292 39.068 287.588 38.96C288.092 38.924 288.488 38.87 288.776 38.798C289.064 38.69 289.28 38.546 289.424 38.366C289.568 38.186 289.658 37.934 289.694 37.61C289.73 37.286 289.766 36.854 289.802 36.314C289.802 35.918 289.802 35.522 289.802 35.126C289.838 34.694 289.856 34.28 289.856 33.884C289.856 31.508 289.766 29.15 289.586 26.81C289.442 24.47 289.28 22.112 289.1 19.736C288.992 18.692 288.848 17.666 288.668 16.658C288.524 15.65 288.326 14.624 288.074 13.58C287.786 12.392 287.336 11.294 286.724 10.286C286.148 9.278 285.464 8.324 284.672 7.424C284.168 6.812 283.61 6.416 282.998 6.236C282.386 6.02 281.738 5.912 281.054 5.912C280.766 5.912 280.478 5.93 280.19 5.966C279.902 5.966 279.614 5.984 279.326 6.02C278.498 6.092 277.94 6.416 277.652 6.992C277.364 7.532 277.094 8.09 276.842 8.666C275.69 11.51 275.114 14.516 275.114 17.684C275.114 17.9 275.114 18.116 275.114 18.332C275.15 18.548 275.168 18.764 275.168 18.98C275.204 20.312 275.24 21.644 275.276 22.976C275.348 24.272 275.42 25.604 275.492 26.972V27.674ZM261.398 39.068C261.254 35.576 261.11 32.12 260.966 28.7C260.858 25.28 260.768 21.842 260.696 18.386C260.696 18.242 260.678 18.098 260.642 17.954C260.642 17.81 260.642 17.666 260.642 17.522C260.678 15.47 260.894 13.472 261.29 11.528C261.722 9.584 262.37 7.676 263.234 5.804C264.458 2.996 266.546 1.466 269.498 1.214C270.83 1.07 272.144 0.979997 273.44 0.943998C274.772 0.871998 276.104 0.835999 277.436 0.835999C279.164 0.835999 280.892 0.889998 282.62 0.997997C283.844 1.07 284.942 1.394 285.914 1.97C286.886 2.51 287.768 3.248 288.56 4.184C289.748 5.624 290.756 7.154 291.584 8.774C292.412 10.358 292.97 12.086 293.258 13.958C293.762 17.126 294.14 20.258 294.392 23.354C294.68 26.414 294.824 29.528 294.824 32.696C294.824 33.776 294.806 34.856 294.77 35.936C294.734 36.98 294.68 38.042 294.608 39.122C294.536 40.094 294.464 41.066 294.392 42.038C294.356 42.974 294.338 43.928 294.338 44.9C294.338 46.052 294.374 47.186 294.446 48.302C294.554 49.382 294.698 50.498 294.878 51.65C294.986 53.126 295.058 54.548 295.094 55.916C295.166 57.32 295.238 58.652 295.31 59.912C295.382 61.208 295.49 62.432 295.634 63.584C295.778 64.736 295.994 65.78 296.282 66.716C296.354 67.004 296.39 67.202 296.39 67.31C296.39 68.03 296.012 68.624 295.256 69.092C294.788 69.38 294.338 69.524 293.906 69.524C293.402 69.524 292.898 69.38 292.394 69.092C291.998 68.804 291.692 68.462 291.476 68.066C291.26 67.67 291.116 67.22 291.044 66.716C290.936 65.996 290.81 65.258 290.666 64.502C290.522 63.746 290.45 62.99 290.45 62.234C290.414 60.254 290.324 58.472 290.18 56.888C290.072 55.304 289.946 53.864 289.802 52.568C289.694 51.236 289.586 50.012 289.478 48.896C289.37 47.744 289.316 46.61 289.316 45.494V45.008C289.316 44.288 288.974 43.928 288.29 43.928H287.912C286.652 44.036 285.374 44.162 284.078 44.306C282.818 44.45 281.558 44.522 280.298 44.522C279.398 44.522 278.498 44.468 277.598 44.36H277.328C276.644 44.36 276.302 44.774 276.302 45.602C276.338 47.078 276.356 48.554 276.356 50.03C276.356 51.47 276.356 52.946 276.356 54.458L276.194 65.636C276.194 66.896 275.942 67.796 275.438 68.336C274.97 68.876 274.106 69.182 272.846 69.254C271.262 69.362 269.696 69.416 268.148 69.416C267.716 69.416 267.266 69.398 266.798 69.362C266.366 69.362 265.934 69.362 265.502 69.362C264.134 69.326 263.162 69.02 262.586 68.444C262.01 67.904 261.704 66.932 261.668 65.528C261.632 64.376 261.614 63.242 261.614 62.126C261.614 61.01 261.614 59.876 261.614 58.724L261.776 48.464C261.776 46.88 261.74 45.314 261.668 43.766C261.596 42.218 261.506 40.652 261.398 39.068ZM306.663 69.47C305.187 69.47 304.341 68.642 304.125 66.986C304.053 66.338 303.999 65.69 303.963 65.042C303.927 64.394 303.891 63.746 303.855 63.098C303.747 59.174 303.603 55.25 303.423 51.326C303.243 47.366 303.135 43.406 303.099 39.446C303.099 38.294 303.063 37.142 302.991 35.99C302.919 34.838 302.883 33.686 302.883 32.534L302.991 5.48C303.063 3.068 304.215 1.754 306.447 1.538C307.635 1.394 308.805 1.286 309.957 1.214C311.145 1.106 312.333 1.052 313.521 1.052C313.845 1.052 314.169 1.052 314.493 1.052C314.817 1.052 315.159 1.07 315.519 1.106C316.671 1.178 317.481 1.43 317.949 1.862C318.417 2.294 318.741 3.068 318.921 4.184C319.749 8.432 320.847 12.968 322.215 17.792C323.583 22.58 325.041 27.458 326.589 32.426L326.967 33.29C327.219 33.11 327.363 32.966 327.399 32.858C327.471 32.714 327.525 32.552 327.561 32.372C328.713 27.26 329.973 22.274 331.341 17.414C332.745 12.554 334.077 7.946 335.337 3.59C335.769 1.898 336.651 1.052 337.983 1.052H338.307C339.027 1.16 339.621 1.52 340.089 2.132C340.557 2.708 340.809 3.446 340.845 4.346V16.874L340.791 20.276C340.791 22.94 340.827 25.586 340.899 28.214C341.007 30.806 341.133 33.434 341.277 36.098C341.457 39.014 341.601 42.074 341.709 45.278C341.817 48.482 341.925 51.542 342.033 54.458C342.105 55.574 342.159 56.672 342.195 57.752C342.267 58.868 342.339 59.984 342.411 61.1C342.483 61.928 342.555 62.738 342.627 63.53C342.699 64.358 342.843 65.186 343.059 66.014L343.167 66.716C343.167 67.328 342.951 67.868 342.519 68.336C342.123 68.84 341.619 69.164 341.007 69.308C340.863 69.344 340.665 69.362 340.413 69.362C339.909 69.362 339.441 69.182 339.009 68.822C338.577 68.498 338.253 68.03 338.037 67.418C337.893 67.022 337.785 66.626 337.713 66.23C337.677 65.87 337.641 65.492 337.605 65.096C337.209 58.184 336.849 51.146 336.525 43.982C336.237 36.818 336.003 29.762 335.823 22.814C335.787 22.634 335.751 22.472 335.715 22.328C335.679 22.184 335.625 22.022 335.553 21.842C335.085 22.85 334.725 23.876 334.473 24.92C334.221 25.928 333.969 26.954 333.717 27.998C333.141 30.374 332.583 32.732 332.043 35.072C331.539 37.376 331.035 39.716 330.531 42.092C330.423 42.488 330.315 42.902 330.207 43.334C330.099 43.766 329.955 44.18 329.775 44.576C329.523 45.044 329.199 45.386 328.803 45.602C328.443 45.818 328.047 45.926 327.615 45.926C326.787 45.926 326.103 45.548 325.563 44.792C325.347 44.504 325.185 44.198 325.077 43.874C324.969 43.514 324.861 43.154 324.753 42.794C323.745 39.59 322.701 36.422 321.621 33.29C320.541 30.122 319.569 26.9 318.705 23.624C318.633 23.444 318.579 23.282 318.543 23.138C318.543 22.958 318.453 22.814 318.273 22.706H318.165C318.057 22.706 318.003 22.778 318.003 22.922C317.967 24.254 317.931 25.586 317.895 26.918C317.895 28.214 317.895 29.528 317.895 30.86C317.895 32.912 317.967 34.928 318.111 36.908C318.255 38.888 318.327 40.904 318.327 42.956C318.327 49.256 318.489 55.502 318.813 61.694C318.849 62.306 318.867 62.936 318.867 63.584C318.903 64.232 318.957 64.88 319.029 65.528L319.083 66.122C319.083 67.058 318.831 67.76 318.327 68.228C317.859 68.696 317.121 69.002 316.113 69.146C314.565 69.326 313.017 69.398 311.469 69.362C309.921 69.362 308.373 69.398 306.825 69.47H306.663Z" fill="#1F1F1F"/>
</svg>
